<svg xmlns="http://www.w3.org/2000/svg" viewBox="0 0 482.41 429.44"><defs><style>.cls-1{fill:#ffd6ac;fill-rule:evenodd;}</style></defs><title>nft_logo_1</title><g id="Layer_2" data-name="Layer 2"><g id="Layer_1-2" data-name="Layer 1"><path class="cls-1" d="M197.49,191.52c.58-1.09,1.11-2.22,1.77-3.26-238.49-166.44,16.41-312.94,40.19-23.08.59,0,1.15-.17,1.75-.17s1.3.17,2,.19c24.89-289.78,279.21-142.29,40.08,23.23.66,1,1.2,2.17,1.77,3.26,263.49-123.43,262.94,170.7-.1,46.24-.58,1.1-1.11,2.22-1.77,3.27C521.63,407.63,266.75,554.1,243,264.25c-.6,0-1.17.18-1.78.18s-1.28-.17-1.93-.19C214.36,554-39.94,406.54,199.17,241c-.66-1-1.2-2.16-1.77-3.26C-66.09,361.16-65.53,67.08,197.49,191.52Z"/></g></g></svg>